<?xml version="1.0" encoding="utf-8"?>
<!-- Generator: Adobe Illustrator 22.0.1, SVG Export Plug-In . SVG Version: 6.00 Build 0)  -->
<svg version="1.1" id="Layer_1" xmlns="http://www.w3.org/2000/svg" xmlns:xlink="http://www.w3.org/1999/xlink" x="0px" y="0px"
	 viewBox="0 0 233 62.6" style="enable-background:new 0 0 233 62.6;" xml:space="preserve">
<style type="text/css">
	.st0{fill:#302E2E;}
	.st1{fill:url(#SVGID_1_);}
	.st2{fill:url(#SVGID_2_);}
	.st3{fill:url(#SVGID_3_);}
	.st4{fill:url(#SVGID_4_);}
	.st5{fill:url(#SVGID_5_);}
	.st6{fill:url(#SVGID_6_);}
	.st7{fill:#F89B1E;}
</style>
<g>
	<path d="M2.8,54.9H0V54h6.6v0.9H3.8v7.5h-1V54.9z"/>
	<path d="M7.4,58.2c0-2.3,1.7-4.3,4.3-4.3c2.6,0,4.3,2,4.3,4.3c0,2.3-1.7,4.3-4.3,4.3C9.1,62.6,7.4,60.6,7.4,58.2z M15,58.2
		c0-1.9-1.4-3.5-3.3-3.5s-3.3,1.5-3.3,3.5c0,1.9,1.4,3.5,3.3,3.5S15,60.1,15,58.2z"/>
	<path d="M18,54h3.1c1.9,0,3.1,1,3.1,2.7c0,1.8-1.5,2.7-3.3,2.7h-2v3H18V54z M21,58.6c1.4,0,2.3-0.7,2.3-1.9c0-1.2-0.9-1.8-2.3-1.8
		h-2.1v3.7H21z"/>
	<path d="M26,54h5.4v0.9h-4.4v7.5H26V54z"/>
	<path d="M32.1,58.2c0-2.3,1.7-4.3,4.3-4.3c2.6,0,4.3,2,4.3,4.3c0,2.3-1.7,4.3-4.3,4.3C33.8,62.6,32.1,60.6,32.1,58.2z M39.7,58.2
		c0-1.9-1.4-3.5-3.3-3.5s-3.3,1.5-3.3,3.5c0,1.9,1.4,3.5,3.3,3.5S39.7,60.1,39.7,58.2z"/>
	<path d="M42.7,54h3.6c1,0,1.7,0.3,2.2,0.7c0.3,0.4,0.5,0.8,0.5,1.4c0,1.1-0.7,1.7-1.3,1.9c1,0.3,1.8,0.9,1.8,2.1
		c0,1.4-1.2,2.3-3,2.3h-3.7V54z M46.1,57.8c1.1,0,1.9-0.5,1.9-1.5c0-0.8-0.7-1.4-1.9-1.4h-2.6v2.9H46.1z M46.4,61.6
		c1.3,0,2.1-0.6,2.1-1.5c0-0.9-0.8-1.4-2.2-1.4h-2.7v3H46.4z"/>
	<path d="M51,58.2c0-2.3,1.7-4.3,4.3-4.3c2.6,0,4.3,2,4.3,4.3c0,2.3-1.7,4.3-4.3,4.3C52.7,62.6,51,60.6,51,58.2z M58.5,58.2
		c0-1.9-1.4-3.5-3.3-3.5s-3.3,1.5-3.3,3.5c0,1.9,1.4,3.5,3.3,3.5S58.5,60.1,58.5,58.2z"/>
	<path d="M61.1,58.3h3.3v1h-3.3V58.3z"/>
	<path d="M68.4,59c-1.3-0.2-2.3-1.1-2.3-2.5c0-0.6,0.2-1.3,0.6-1.7c0.5-0.5,1.4-0.9,2.4-0.9h3.6v8.4h-0.9v-3.2h-2.4l-2.5,3.2h-1.2
		L68.4,59z M71.8,58.4v-3.5h-2.6c-1.4,0-2.2,0.7-2.2,1.8c0,1.1,0.9,1.8,2.2,1.8H71.8z"/>
	<path d="M75.1,54h3.1c1.9,0,3.1,1,3.1,2.7c0,1.8-1.5,2.7-3.3,2.7h-2v3h-0.9V54z M78.1,58.6c1.4,0,2.3-0.7,2.3-1.9
		c0-1.2-0.9-1.8-2.3-1.8h-2.1v3.7H78.1z"/>
	<path d="M83.1,54h1l3.1,4.6l3.1-4.6h1v8.4h-0.9v-6.8l-3.1,4.5h0l-3.1-4.5v6.8h-0.9V54z"/>
	<path d="M96.7,54h0.9l3.8,8.5h-1l-1-2.2h-4.6l-1,2.2h-1L96.7,54z M99,59.3l-1.9-4.3l-1.9,4.3H99z"/>
	<path d="M103,54h3.1c1.9,0,3.1,1,3.1,2.7c0,1.8-1.5,2.7-3.3,2.7h-2v3H103V54z M106.1,58.6c1.4,0,2.3-0.7,2.3-1.9
		c0-1.2-0.9-1.8-2.3-1.8H104v3.7H106.1z"/>
	<path d="M110.7,58.2c0-2.3,1.7-4.3,4.3-4.3c2.6,0,4.3,2,4.3,4.3c0,2.3-1.7,4.3-4.3,4.3C112.4,62.6,110.7,60.6,110.7,58.2z
		 M118.3,58.2c0-1.9-1.4-3.5-3.3-3.5s-3.3,1.5-3.3,3.5c0,1.9,1.4,3.5,3.3,3.5S118.3,60.1,118.3,58.2z"/>
	<path d="M126.3,58.8c-0.6,0.4-1.8,0.8-2.6,0.8c-1.6,0-2.7-0.8-2.7-2.5V54h0.9v3c0,1.1,0.7,1.7,1.8,1.7c0.9,0,1.8-0.4,2.5-0.8V54
		h0.9v8.4h-0.9V58.8z"/>
	<path d="M129.6,54h0.9v3.7h4.8V54h0.9v8.4h-0.9v-3.8h-4.8v3.8h-0.9V54z"/>
	<path d="M138.7,54h0.9v3.3h2.1c1.8,0,3.3,0.7,3.3,2.5c0,1.6-1.2,2.7-3.1,2.7h-3.2V54z M141.9,61.6c1.3,0,2.2-0.6,2.2-1.8
		c0-1.1-0.9-1.6-2.3-1.6h-2.2v3.4H141.9z M146.1,54h0.9v8.4h-0.9V54z"/>
	<path d="M149.4,54h0.9v7l5-7h0.9v8.4h-0.9v-7l-5,7h-0.9V54z M151.2,51.8l0.6-0.1c0.1,0.5,0.5,0.8,1.1,0.8s0.9-0.3,1.1-0.8l0.6,0.1
		c-0.1,0.9-0.8,1.5-1.7,1.5S151.4,52.7,151.2,51.8z"/>
	<path d="M162.3,54h0.9v5l4.8-5h1.2l-3.6,3.7l3.8,4.7h-1.2l-3.2-4.1l-1.8,1.8v2.3h-0.9V54z"/>
	<path d="M170.2,58.2c0-2.3,1.7-4.3,4.3-4.3c2.6,0,4.3,2,4.3,4.3c0,2.3-1.7,4.3-4.3,4.3S170.2,60.6,170.2,58.2z M177.8,58.2
		c0-1.9-1.4-3.5-3.3-3.5s-3.3,1.5-3.3,3.5c0,1.9,1.4,3.5,3.3,3.5S177.8,60.1,177.8,58.2z"/>
	<path d="M180.8,54h1l3.1,4.6l3.1-4.6h1v8.4h-0.9v-6.8l-3.1,4.5h0l-3.1-4.5v6.8h-0.9V54z"/>
	<path d="M191.2,54h6.6v8.4h-0.9v-7.5h-4.7v7.5h-0.9V54z"/>
	<path d="M198.9,62.3l0.2-0.8c0.1,0.1,0.5,0.1,0.7,0.1c0.6,0,1.7-0.4,1.7-6.1V54h5.4v8.4h-0.9v-7.5h-3.6v0.9c0,5.9-1.2,6.7-2.5,6.7
		C199.6,62.5,199.1,62.4,198.9,62.3z"/>
	<path d="M209.4,54h6.1v0.9h-5.1v2.9h4.6v0.9h-4.6v2.9h5.2v0.9h-6.1V54z"/>
	<path d="M217.4,54h0.9v5l4.8-5h1.2l-3.6,3.7l3.8,4.7h-1.2l-3.2-4.1l-1.8,1.8v2.3h-0.9V54z"/>
	<path d="M225.3,58.2c0-2.4,1.8-4.3,4.2-4.3c1.5,0,2.4,0.6,3.3,1.4l-0.6,0.7c-0.7-0.7-1.5-1.2-2.6-1.2c-1.9,0-3.3,1.5-3.3,3.5
		c0,1.9,1.4,3.5,3.3,3.5c1.2,0,1.9-0.4,2.7-1.2l0.6,0.7c-0.9,0.9-1.8,1.4-3.4,1.4C227.1,62.6,225.3,60.7,225.3,58.2z"/>
</g>
<g>
	<polygon class="st0" points="42.6,40.3 103.1,44.1 42.6,44.1 1.5,44.1 42.6,40.3 	"/>
	<linearGradient id="SVGID_1_" gradientUnits="userSpaceOnUse" x1="1.5349" y1="36.1229" x2="103.0786" y2="36.1229">
		<stop  offset="0" style="stop-color:#FAA61A"/>
		<stop  offset="6.193832e-02" style="stop-color:#FAA81D"/>
		<stop  offset="0.1215" style="stop-color:#FBAB29"/>
		<stop  offset="0.1802" style="stop-color:#FCB13D"/>
		<stop  offset="0.2383" style="stop-color:#FDB957"/>
		<stop  offset="0.296" style="stop-color:#FDC475"/>
		<stop  offset="0.3534" style="stop-color:#FFD296"/>
		<stop  offset="0.4095" style="stop-color:#FFE3C0"/>
		<stop  offset="0.4436" style="stop-color:#FFEFDD"/>
		<stop  offset="0.4731" style="stop-color:#FDCFB1"/>
		<stop  offset="0.5091" style="stop-color:#FAAF87"/>
		<stop  offset="0.5467" style="stop-color:#F79467"/>
		<stop  offset="0.5852" style="stop-color:#F47F4F"/>
		<stop  offset="0.625" style="stop-color:#F36E3C"/>
		<stop  offset="0.6666" style="stop-color:#F26130"/>
		<stop  offset="0.7112" style="stop-color:#F15929"/>
		<stop  offset="0.7641" style="stop-color:#F15627"/>
	</linearGradient>
	<polygon class="st1" points="42.6,30 103.1,42.2 42.6,37.8 1.5,42.2 42.6,30 	"/>
	<linearGradient id="SVGID_2_" gradientUnits="userSpaceOnUse" x1="1.5349" y1="28.4145" x2="103.0786" y2="28.4145">
		<stop  offset="0" style="stop-color:#FAA61A"/>
		<stop  offset="6.193832e-02" style="stop-color:#FAA81D"/>
		<stop  offset="0.1215" style="stop-color:#FBAB29"/>
		<stop  offset="0.1802" style="stop-color:#FCB13D"/>
		<stop  offset="0.2383" style="stop-color:#FDB957"/>
		<stop  offset="0.296" style="stop-color:#FDC475"/>
		<stop  offset="0.3534" style="stop-color:#FFD296"/>
		<stop  offset="0.4095" style="stop-color:#FFE3C0"/>
		<stop  offset="0.4436" style="stop-color:#FFEFDD"/>
		<stop  offset="0.4731" style="stop-color:#FDCFB1"/>
		<stop  offset="0.5091" style="stop-color:#FAAF87"/>
		<stop  offset="0.5467" style="stop-color:#F79467"/>
		<stop  offset="0.5852" style="stop-color:#F47F4F"/>
		<stop  offset="0.625" style="stop-color:#F36E3C"/>
		<stop  offset="0.6666" style="stop-color:#F26130"/>
		<stop  offset="0.7112" style="stop-color:#F15929"/>
		<stop  offset="0.7641" style="stop-color:#F15627"/>
	</linearGradient>
	<polygon class="st2" points="42.6,17 103.1,39.9 42.6,26.8 1.5,39.9 42.6,17 	"/>
	<linearGradient id="SVGID_3_" gradientUnits="userSpaceOnUse" x1="1.5349" y1="18.8333" x2="103.0786" y2="18.8333">
		<stop  offset="0" style="stop-color:#FAA61A"/>
		<stop  offset="6.193832e-02" style="stop-color:#FAA81D"/>
		<stop  offset="0.1215" style="stop-color:#FBAB29"/>
		<stop  offset="0.1802" style="stop-color:#FCB13D"/>
		<stop  offset="0.2383" style="stop-color:#FDB957"/>
		<stop  offset="0.296" style="stop-color:#FDC475"/>
		<stop  offset="0.3534" style="stop-color:#FFD296"/>
		<stop  offset="0.4095" style="stop-color:#FFE3C0"/>
		<stop  offset="0.4436" style="stop-color:#FFEFDD"/>
		<stop  offset="0.4731" style="stop-color:#FDCFB1"/>
		<stop  offset="0.5091" style="stop-color:#FAAF87"/>
		<stop  offset="0.5467" style="stop-color:#F79467"/>
		<stop  offset="0.5852" style="stop-color:#F47F4F"/>
		<stop  offset="0.625" style="stop-color:#F36E3C"/>
		<stop  offset="0.6666" style="stop-color:#F26130"/>
		<stop  offset="0.7112" style="stop-color:#F15929"/>
		<stop  offset="0.7641" style="stop-color:#F15627"/>
	</linearGradient>
	<polygon class="st3" points="42.6,0 103.1,37.7 42.6,12.8 1.5,37.7 42.6,0 	"/>
	<linearGradient id="SVGID_4_" gradientUnits="userSpaceOnUse" x1="42.5045" y1="36.1229" x2="103.0786" y2="36.1229">
		<stop  offset="0" style="stop-color:#FAA61A"/>
		<stop  offset="1" style="stop-color:#F15627"/>
	</linearGradient>
	<polygon class="st4" points="42.6,30 103.1,42.2 42.6,37.8 42.5,37.8 42.5,30.1 42.6,30 	"/>
	<linearGradient id="SVGID_5_" gradientUnits="userSpaceOnUse" x1="42.5045" y1="28.4145" x2="103.0786" y2="28.4145">
		<stop  offset="0" style="stop-color:#FAA61A"/>
		<stop  offset="1" style="stop-color:#F15627"/>
	</linearGradient>
	<polygon class="st5" points="42.6,17 103.1,39.9 42.6,26.8 42.5,26.9 42.5,17 42.6,17 	"/>
	<linearGradient id="SVGID_6_" gradientUnits="userSpaceOnUse" x1="42.5045" y1="18.8333" x2="103.0786" y2="18.8333">
		<stop  offset="0" style="stop-color:#FAA61A"/>
		<stop  offset="1" style="stop-color:#F15627"/>
	</linearGradient>
	<polygon class="st6" points="42.6,0 103.1,37.7 42.6,12.8 42.5,12.9 42.5,0.1 42.6,0 	"/>
</g>
<g>
	<path class="st7" d="M126.4,23.3h15.5v3.3H130v4.8h5.8c4.6,0,7.5,2.3,7.5,6.3c0,4.1-3,6.4-7.7,6.4h-9.2V23.3z M134.8,40.8
		c3.1,0,4.9-0.7,4.9-3.3c0-2-1.5-3-4.2-3H130v6.3H134.8z"/>
	<path class="st7" d="M156,23.2h3.4l9.1,20.9h-3.9l-2.1-5h-9.8l-2.1,5h-3.7L156,23.2z M161.2,35.8l-3.6-8.3l-3.6,8.3H161.2z"/>
	<path class="st7" d="M186.9,28.6c0,2.7-1.7,4.1-3.5,4.8c2.3,0.7,4.1,2.3,4.1,5c0,3.4-3,6.1-7.6,6.1c-4,0-6.7-1.2-9-3.4l2-2.5
		c1.9,1.8,4.1,2.8,6.9,2.8c2.2,0,4.1-1.2,4.1-3.1c0-2.1-2-3-4.7-3h-2.3v-3h2.3c2.6,0,4.3-1.1,4.3-3c0-1.7-1.6-2.9-3.9-2.9
		c-2.5,0-4.2,0.8-5.8,2.3l-2-2.4c2-1.9,4.3-3.1,8-3.1C184,23,186.9,25.3,186.9,28.6z"/>
	<path class="st7" d="M199.7,23.2h3.4l9.1,20.9h-3.9l-2.1-5h-9.8l-2.1,5h-3.7L199.7,23.2z M204.9,35.8l-3.6-8.3l-3.6,8.3H204.9z"/>
	<path class="st7" d="M216.9,23.3h8.2c4.8,0,7.9,2.8,7.9,7c0,4.6-3.7,7.1-8.3,7.1h-4.1v6.7h-3.6V23.3z M224.8,34.1
		c2.8,0,4.5-1.5,4.5-3.8c0-2.4-1.7-3.7-4.5-3.7h-4.2v7.5H224.8z"/>
</g>
</svg>
